# MagicaVoxel @ Ephtracy

# group
o 

# material
mtllib cat tower.mtl
usemtl palette

# normals
vn -1 0 0
vn 1 0 0
vn 0 0 1
vn 0 0 -1
vn 0 -1 0
vn 0 1 0

# texcoords
vt 0.00976563 0.5
vt 0.0371094 0.5
vt 0.306641 0.5
vt 0.845703 0.5
vt 0.873047 0.5

# verts
v -2.5 0 3.1
v -2.5 0 -2.9
v -2.5 1.1 3.1
v -2.5 1.1 2.1
v -2.5 6 0
v -2.5 6 -0.8
v -2.5 6.4 0.5
v -2.5 6.4 0
v -2.5 6.4 -0.8
v -2.5 6.4 -1.2
v -2.5 7.3 -1.2
v -2.5 7.3 -1.6
v -2.5 7.5 2.1
v -2.5 7.5 0.5
v -2.5 7.5 -1.6
v -2.5 7.5 -2.9
v 0.1 3.3 2.1
v 0.1 3.3 1.9
v 0.1 3.4 2.1
v 0.1 3.4 1.9
v 0.2 3.2 2.1
v 0.2 3.2 1.9
v 0.2 3.3 2.1
v 0.2 3.3 1.9
v 0.3 3 2.1
v 0.3 3 1.9
v 0.3 3.2 2.1
v 0.3 3.2 1.9
v 0.4 2.9 2.1
v 0.4 2.9 1.9
v 0.4 3 2.1
v 0.4 3 1.9
v 0.4 6.2 -2.1
v 0.4 6.2 -2.9
v 0.4 6.6 -2.1
v 0.4 6.6 -2.9
v 0.5 6.2 2.1
v 0.5 6.2 1.3
v 0.5 6.6 2.1
v 0.5 6.6 1.3
v 0.6 0 2.1
v 0.6 0 1.9
v 0.6 2.9 2.1
v 0.6 2.9 1.9
v 0.9 6.6 -2.1
v 0.9 6.6 -2.9
v 0.9 7.3 -2.1
v 0.9 7.3 -2.9
v 1 6.6 2.1
v 1 6.6 1.3
v 1 7.3 2.1
v 1 7.3 1.3
v 1.2 7.3 -2.1
v 1.2 7.3 -2.9
v 1.2 7.5 -2.1
v 1.2 7.5 -2.9
v 1.3 0 3.1
v 1.3 0 2.1
v 1.3 1.1 3.1
v 1.3 1.1 2.1
v 1.3 7.3 2.1
v 1.3 7.3 1.3
v 1.3 7.5 2.1
v 1.3 7.5 1.3
v 1.8 0 1.3
v 1.8 0 -2.1
v 1.8 6 0
v 1.8 6 -0.8
v 1.8 6.4 0.5
v 1.8 6.4 0
v 1.8 6.4 -0.8
v 1.8 6.4 -1.2
v 1.8 7.3 -1.2
v 1.8 7.3 -1.6
v 1.8 7.5 1.3
v 1.8 7.5 0.5
v 1.8 7.5 -1.6
v 1.8 7.5 -2.1
v -1.8 0 1.3
v -1.8 0 -2.1
v -1.8 6 0
v -1.8 6 -0.8
v -1.8 6.4 0.5
v -1.8 6.4 0
v -1.8 6.4 -0.8
v -1.8 6.4 -1.2
v -1.8 7.3 -1.2
v -1.8 7.3 -1.6
v -1.8 7.5 1.3
v -1.8 7.5 0.5
v -1.8 7.5 -1.6
v -1.8 7.5 -2.1
v -1.3 0 3.1
v -1.3 0 2.1
v -1.3 1.1 3.1
v -1.3 1.1 2.1
v -1.3 7.3 2.1
v -1.3 7.3 1.3
v -1.3 7.5 2.1
v -1.3 7.5 1.3
v -1.2 7.3 -2.1
v -1.2 7.3 -2.9
v -1.2 7.5 -2.1
v -1.2 7.5 -2.9
v -1 6.6 2.1
v -1 6.6 1.3
v -1 7.3 2.1
v -1 7.3 1.3
v -0.9 6.6 -2.1
v -0.9 6.6 -2.9
v -0.9 7.3 -2.1
v -0.9 7.3 -2.9
v -0.6 0 2.1
v -0.6 0 1.9
v -0.6 2.9 2.1
v -0.6 2.9 1.9
v -0.5 6.2 2.1
v -0.5 6.2 1.3
v -0.5 6.6 2.1
v -0.5 6.6 1.3
v -0.4 2.9 2.1
v -0.4 2.9 1.9
v -0.4 3 2.1
v -0.4 3 1.9
v -0.4 6.2 -2.1
v -0.4 6.2 -2.9
v -0.4 6.6 -2.1
v -0.4 6.6 -2.9
v -0.3 3 2.1
v -0.3 3 1.9
v -0.3 3.2 2.1
v -0.3 3.2 1.9
v -0.2 3.2 2.1
v -0.2 3.2 1.9
v -0.2 3.3 2.1
v -0.2 3.3 1.9
v -0.0999999 3.3 2.1
v -0.0999999 3.3 1.9
v -0.0999999 3.4 2.1
v -0.0999999 3.4 1.9
v 2.5 0 3.1
v 2.5 0 -2.9
v 2.5 1.1 3.1
v 2.5 1.1 2.1
v 2.5 6 0
v 2.5 6 -0.8
v 2.5 6.4 0.5
v 2.5 6.4 0
v 2.5 6.4 -0.8
v 2.5 6.4 -1.2
v 2.5 7.3 -1.2
v 2.5 7.3 -1.6
v 2.5 7.5 2.1
v 2.5 7.5 0.5
v 2.5 7.5 -1.6
v 2.5 7.5 -2.9
v -2.5 0 3.1
v -2.5 1.1 3.1
v -1.3 0 3.1
v -1.3 1.1 3.1
v 1.3 0 3.1
v 1.3 1.1 3.1
v 2.5 0 3.1
v 2.5 1.1 3.1
v -2.5 1.1 2.1
v -2.5 7.5 2.1
v -2.2 1.1 2.1
v -2.2 6.9 2.1
v -1.8 4.4 2.1
v -1.8 4.6 2.1
v -1.7 4.4 2.1
v -1.7 4.5 2.1
v -1.7 4.6 2.1
v -1.7 4.7 2.1
v -1.6 3.2 2.1
v -1.6 3.5 2.1
v -1.6 4.5 2.1
v -1.6 4.6 2.1
v -1.5 3.1 2.1
v -1.5 3.2 2.1
v -1.5 3.3 2.1
v -1.5 3.5 2.1
v -1.5 4.7 2.1
v -1.5 4.8 2.1
v -1.4 3 2.1
v -1.4 3.1 2.1
v -1.4 3.2 2.1
v -1.4 3.3 2.1
v -1.4 4.6 2.1
v -1.4 4.7 2.1
v -1.4 6 2.1
v -1.4 6.9 2.1
v -1.3 0 2.1
v -1.3 1.1 2.1
v -1.3 3.1 2.1
v -1.3 3.2 2.1
v -1.3 7.3 2.1
v -1.3 7.5 2.1
v -1.2 2.9 2.1
v -1.2 3 2.1
v -1.1 3 2.1
v -1.1 3.1 2.1
v -1.1 4.6 2.1
v -1.1 4.7 2.1
v -1 4.7 2.1
v -1 4.8 2.1
v -1 6.6 2.1
v -1 7.3 2.1
v -0.9 4.5 2.1
v -0.9 4.6 2.1
v -0.8 4.4 2.1
v -0.8 4.5 2.1
v -0.8 4.6 2.1
v -0.8 4.7 2.1
v -0.7 4.4 2.1
v -0.7 4.6 2.1
v -0.6 0 2.1
v -0.6 2.9 2.1
v -0.5 3 2.1
v -0.5 3.1 2.1
v -0.5 6.2 2.1
v -0.5 6.6 2.1
v -0.4 2.9 2.1
v -0.4 3 2.1
v -0.4 3.1 2.1
v -0.4 3.2 2.1
v -0.4 3.6 2.1
v -0.4 3.9 2.1
v -0.3 3 2.1
v -0.3 3.2 2.1
v -0.3 3.3 2.1
v -0.3 3.9 2.1
v -0.3 4 2.1
v -0.2 3.2 2.1
v -0.2 3.3 2.1
v -0.2 3.5 2.1
v -0.0999999 3.3 2.1
v -0.0999999 3.4 2.1
v -0.0999999 3.5 2.1
v -0.0999999 3.6 2.1
v 0.1 3.3 2.1
v 0.1 3.4 2.1
v 0.1 3.5 2.1
v 0.1 3.6 2.1
v 0.2 3.2 2.1
v 0.2 3.3 2.1
v 0.2 3.5 2.1
v 0.3 3 2.1
v 0.3 3.2 2.1
v 0.3 3.3 2.1
v 0.3 3.9 2.1
v 0.3 4 2.1
v 0.4 2.9 2.1
v 0.4 3 2.1
v 0.4 3.1 2.1
v 0.4 3.2 2.1
v 0.4 3.6 2.1
v 0.4 3.9 2.1
v 0.5 3 2.1
v 0.5 3.1 2.1
v 0.5 6.2 2.1
v 0.5 6.6 2.1
v 0.6 0 2.1
v 0.6 2.9 2.1
v 0.7 4.4 2.1
v 0.7 4.6 2.1
v 0.8 4.4 2.1
v 0.8 4.5 2.1
v 0.8 4.6 2.1
v 0.8 4.7 2.1
v 0.9 4.5 2.1
v 0.9 4.6 2.1
v 1 4.7 2.1
v 1 4.8 2.1
v 1 6.6 2.1
v 1 7.3 2.1
v 1.1 3 2.1
v 1.1 3.1 2.1
v 1.1 4.6 2.1
v 1.1 4.7 2.1
v 1.2 2.9 2.1
v 1.2 3 2.1
v 1.3 0 2.1
v 1.3 1.1 2.1
v 1.3 3.1 2.1
v 1.3 3.2 2.1
v 1.3 7.3 2.1
v 1.3 7.5 2.1
v 1.4 3 2.1
v 1.4 3.1 2.1
v 1.4 3.2 2.1
v 1.4 3.3 2.1
v 1.4 4.6 2.1
v 1.4 4.7 2.1
v 1.4 6 2.1
v 1.4 6.9 2.1
v 1.5 3.1 2.1
v 1.5 3.2 2.1
v 1.5 3.3 2.1
v 1.5 3.5 2.1
v 1.5 4.7 2.1
v 1.5 4.8 2.1
v 1.6 3.2 2.1
v 1.6 3.5 2.1
v 1.6 4.5 2.1
v 1.6 4.6 2.1
v 1.7 4.4 2.1
v 1.7 4.5 2.1
v 1.7 4.6 2.1
v 1.7 4.7 2.1
v 1.8 4.4 2.1
v 1.8 4.6 2.1
v 2.2 1.1 2.1
v 2.2 6.9 2.1
v 2.5 1.1 2.1
v 2.5 7.5 2.1
v -0.6 0 1.9
v -0.6 2.9 1.9
v -0.4 2.9 1.9
v -0.4 3 1.9
v -0.3 3 1.9
v -0.3 3.2 1.9
v -0.2 3.2 1.9
v -0.2 3.3 1.9
v -0.0999999 3.3 1.9
v -0.0999999 3.4 1.9
v 0.1 3.3 1.9
v 0.1 3.4 1.9
v 0.2 3.2 1.9
v 0.2 3.3 1.9
v 0.3 3 1.9
v 0.3 3.2 1.9
v 0.4 2.9 1.9
v 0.4 3 1.9
v 0.6 0 1.9
v 0.6 2.9 1.9
v -2.5 6 -0.8
v -2.5 6.4 -0.8
v -1.8 6 -0.8
v -1.8 6.4 -0.8
v 1.8 6 -0.8
v 1.8 6.4 -0.8
v 2.5 6 -0.8
v 2.5 6.4 -0.8
v -2.5 6.4 -1.2
v -2.5 7.3 -1.2
v -1.8 6.4 -1.2
v -1.8 7.3 -1.2
v 1.8 6.4 -1.2
v 1.8 7.3 -1.2
v 2.5 6.4 -1.2
v 2.5 7.3 -1.2
v -2.5 7.3 -1.6
v -2.5 7.5 -1.6
v -1.8 7.3 -1.6
v -1.8 7.5 -1.6
v 1.8 7.3 -1.6
v 1.8 7.5 -1.6
v 2.5 7.3 -1.6
v 2.5 7.5 -1.6
v -1.8 0 -2.1
v -1.8 7.5 -2.1
v -1.2 7.3 -2.1
v -1.2 7.5 -2.1
v -0.9 6.6 -2.1
v -0.9 7.3 -2.1
v -0.4 6.2 -2.1
v -0.4 6.6 -2.1
v 0.4 6.2 -2.1
v 0.4 6.6 -2.1
v 0.9 6.6 -2.1
v 0.9 7.3 -2.1
v 1.2 7.3 -2.1
v 1.2 7.5 -2.1
v 1.8 0 -2.1
v 1.8 7.5 -2.1
v -1.8 0 1.3
v -1.8 7.5 1.3
v -1.3 7.3 1.3
v -1.3 7.5 1.3
v -1 6.6 1.3
v -1 7.3 1.3
v -0.5 6.2 1.3
v -0.5 6.6 1.3
v 0.5 6.2 1.3
v 0.5 6.6 1.3
v 1 6.6 1.3
v 1 7.3 1.3
v 1.3 7.3 1.3
v 1.3 7.5 1.3
v 1.8 0 1.3
v 1.8 7.5 1.3
v -2.5 6.4 0.5
v -2.5 7.5 0.5
v -1.8 6.4 0.5
v -1.8 7.5 0.5
v 1.8 6.4 0.5
v 1.8 7.5 0.5
v 2.5 6.4 0.5
v 2.5 7.5 0.5
v -2.5 6 0
v -2.5 6.4 0
v -1.8 6 0
v -1.8 6.4 0
v 1.8 6 0
v 1.8 6.4 0
v 2.5 6 0
v 2.5 6.4 0
v -2.5 0 -2.9
v -2.5 7.5 -2.9
v -1.2 7.3 -2.9
v -1.2 7.5 -2.9
v -0.9 6.6 -2.9
v -0.9 7.3 -2.9
v -0.4 6.2 -2.9
v -0.4 6.6 -2.9
v 0.4 6.2 -2.9
v 0.4 6.6 -2.9
v 0.9 6.6 -2.9
v 0.9 7.3 -2.9
v 1.2 7.3 -2.9
v 1.2 7.5 -2.9
v 2.5 0 -2.9
v 2.5 7.5 -2.9
v -2.5 0 3.1
v -1.3 0 3.1
v 1.3 0 3.1
v 2.5 0 3.1
v -1.3 0 2.1
v -0.6 0 2.1
v 0.6 0 2.1
v 1.3 0 2.1
v -1.3 0 1.9
v -0.6 0 1.9
v 0.6 0 1.9
v 1.3 0 1.9
v -0.6 0 1.8
v 0.6 0 1.8
v -1.8 0 1.3
v 1.8 0 1.3
v -1.8 0 -2.1
v 1.8 0 -2.1
v -2.5 0 -2.9
v 2.5 0 -2.9
v -0.6 2.9 2.1
v -0.4 2.9 2.1
v 0.4 2.9 2.1
v 0.6 2.9 2.1
v -0.6 2.9 1.9
v -0.4 2.9 1.9
v 0.4 2.9 1.9
v 0.6 2.9 1.9
v -0.4 3 2.1
v -0.3 3 2.1
v 0.3 3 2.1
v 0.4 3 2.1
v -0.4 3 1.9
v -0.3 3 1.9
v 0.3 3 1.9
v 0.4 3 1.9
v -0.3 3.2 2.1
v -0.2 3.2 2.1
v 0.2 3.2 2.1
v 0.3 3.2 2.1
v -0.3 3.2 1.9
v -0.2 3.2 1.9
v 0.2 3.2 1.9
v 0.3 3.2 1.9
v -0.2 3.3 2.1
v -0.0999999 3.3 2.1
v 0.1 3.3 2.1
v 0.2 3.3 2.1
v -0.2 3.3 1.9
v -0.0999999 3.3 1.9
v 0.1 3.3 1.9
v 0.2 3.3 1.9
v -0.0999999 3.4 2.1
v 0.1 3.4 2.1
v -0.0999999 3.4 1.9
v 0.1 3.4 1.9
v -2.5 1.1 3.1
v -1.3 1.1 3.1
v 1.3 1.1 3.1
v 2.5 1.1 3.1
v -2.5 1.1 2.1
v -2.2 1.1 2.1
v -1.3 1.1 2.1
v 1.3 1.1 2.1
v 2.2 1.1 2.1
v 2.5 1.1 2.1
v -2.5 6 0
v -1.8 6 0
v 1.8 6 0
v 2.5 6 0
v -2.5 6 -0.8
v -1.8 6 -0.8
v 1.8 6 -0.8
v 2.5 6 -0.8
v -0.5 6.2 2.1
v 0.5 6.2 2.1
v -0.5 6.2 1.3
v 0.5 6.2 1.3
v -0.4 6.2 -2.1
v 0.4 6.2 -2.1
v -0.4 6.2 -2.9
v 0.4 6.2 -2.9
v -2.5 6.4 0.5
v -1.8 6.4 0.5
v 1.8 6.4 0.5
v 2.5 6.4 0.5
v -2.5 6.4 0
v -1.8 6.4 0
v 1.8 6.4 0
v 2.5 6.4 0
v -2.5 6.4 -0.8
v -1.8 6.4 -0.8
v 1.8 6.4 -0.8
v 2.5 6.4 -0.8
v -2.5 6.4 -1.2
v -1.8 6.4 -1.2
v 1.8 6.4 -1.2
v 2.5 6.4 -1.2
v -1 6.6 2.1
v -0.5 6.6 2.1
v 0.5 6.6 2.1
v 1 6.6 2.1
v -1 6.6 1.3
v -0.5 6.6 1.3
v 0.5 6.6 1.3
v 1 6.6 1.3
v -0.9 6.6 -2.1
v -0.4 6.6 -2.1
v 0.4 6.6 -2.1
v 0.9 6.6 -2.1
v -0.9 6.6 -2.9
v -0.4 6.6 -2.9
v 0.4 6.6 -2.9
v 0.9 6.6 -2.9
v -1.3 7.3 2.1
v -1 7.3 2.1
v 1 7.3 2.1
v 1.3 7.3 2.1
v -1.3 7.3 1.3
v -1 7.3 1.3
v 1 7.3 1.3
v 1.3 7.3 1.3
v -2.5 7.3 -1.2
v -1.8 7.3 -1.2
v 1.8 7.3 -1.2
v 2.5 7.3 -1.2
v -2.5 7.3 -1.6
v -1.8 7.3 -1.6
v 1.8 7.3 -1.6
v 2.5 7.3 -1.6
v -1.2 7.3 -2.1
v -0.9 7.3 -2.1
v 0.9 7.3 -2.1
v 1.2 7.3 -2.1
v -1.2 7.3 -2.9
v -0.9 7.3 -2.9
v 0.9 7.3 -2.9
v 1.2 7.3 -2.9
v -2.5 7.5 2.1
v -1.3 7.5 2.1
v 1.3 7.5 2.1
v 2.5 7.5 2.1
v -1.8 7.5 1.3
v -1.3 7.5 1.3
v 1.3 7.5 1.3
v 1.8 7.5 1.3
v -2.5 7.5 0.5
v -1.8 7.5 0.5
v 1.8 7.5 0.5
v 2.5 7.5 0.5
v -2.5 7.5 -1.6
v -1.8 7.5 -1.6
v 1.8 7.5 -1.6
v 2.5 7.5 -1.6
v -1.8 7.5 -2.1
v -1.2 7.5 -2.1
v 1.2 7.5 -2.1
v 1.8 7.5 -2.1
v -2.5 7.5 -2.9
v -1.2 7.5 -2.9
v 1.2 7.5 -2.9
v 2.5 7.5 -2.9

# faces
f 3/2/1 2/2/1 1/2/1
f 4/2/1 2/2/1 3/2/1
f 5/2/1 2/2/1 4/2/1
f 6/2/1 2/2/1 5/2/1
f 7/2/1 5/2/1 4/2/1
f 8/2/1 5/2/1 7/2/1
f 9/2/1 2/2/1 6/2/1
f 10/2/1 2/2/1 9/2/1
f 11/2/1 2/2/1 10/2/1
f 12/2/1 2/2/1 11/2/1
f 13/2/1 7/2/1 4/2/1
f 14/2/1 7/2/1 13/2/1
f 15/2/1 2/2/1 12/2/1
f 16/2/1 2/2/1 15/2/1
f 19/5/1 18/5/1 17/5/1
f 20/5/1 18/5/1 19/5/1
f 23/5/1 22/5/1 21/5/1
f 24/5/1 22/5/1 23/5/1
f 27/5/1 26/5/1 25/5/1
f 28/5/1 26/5/1 27/5/1
f 31/5/1 30/5/1 29/5/1
f 32/5/1 30/5/1 31/5/1
f 35/2/1 34/2/1 33/2/1
f 36/2/1 34/2/1 35/2/1
f 39/2/1 38/2/1 37/2/1
f 40/2/1 38/2/1 39/2/1
f 43/1/1 42/1/1 41/1/1
f 44/1/1 42/1/1 43/1/1
f 47/2/1 46/2/1 45/2/1
f 48/2/1 46/2/1 47/2/1
f 51/2/1 50/2/1 49/2/1
f 52/2/1 50/2/1 51/2/1
f 55/2/1 54/2/1 53/2/1
f 56/2/1 54/2/1 55/2/1
f 59/2/1 58/2/1 57/2/1
f 60/2/1 58/2/1 59/2/1
f 63/2/1 62/2/1 61/2/1
f 64/2/1 62/2/1 63/2/1
f 67/2/1 66/2/1 65/2/1
f 68/2/1 66/2/1 67/2/1
f 69/2/1 67/2/1 65/2/1
f 70/2/1 67/2/1 69/2/1
f 71/2/1 66/2/1 68/2/1
f 72/2/1 66/2/1 71/2/1
f 73/2/1 66/2/1 72/2/1
f 74/2/1 66/2/1 73/2/1
f 75/2/1 69/2/1 65/2/1
f 76/2/1 69/2/1 75/2/1
f 77/2/1 66/2/1 74/2/1
f 78/2/1 66/2/1 77/2/1
f 79/2/2 80/2/2 81/2/2
f 81/2/2 80/2/2 82/2/2
f 79/2/2 81/2/2 83/2/2
f 83/2/2 81/2/2 84/2/2
f 82/2/2 80/2/2 85/2/2
f 85/2/2 80/2/2 86/2/2
f 86/2/2 80/2/2 87/2/2
f 87/2/2 80/2/2 88/2/2
f 79/2/2 83/2/2 89/2/2
f 89/2/2 83/2/2 90/2/2
f 88/2/2 80/2/2 91/2/2
f 91/2/2 80/2/2 92/2/2
f 93/2/2 94/2/2 95/2/2
f 95/2/2 94/2/2 96/2/2
f 97/2/2 98/2/2 99/2/2
f 99/2/2 98/2/2 100/2/2
f 101/2/2 102/2/2 103/2/2
f 103/2/2 102/2/2 104/2/2
f 105/2/2 106/2/2 107/2/2
f 107/2/2 106/2/2 108/2/2
f 109/2/2 110/2/2 111/2/2
f 111/2/2 110/2/2 112/2/2
f 113/1/2 114/1/2 115/1/2
f 115/1/2 114/1/2 116/1/2
f 117/2/2 118/2/2 119/2/2
f 119/2/2 118/2/2 120/2/2
f 121/5/2 122/5/2 123/5/2
f 123/5/2 122/5/2 124/5/2
f 125/2/2 126/2/2 127/2/2
f 127/2/2 126/2/2 128/2/2
f 129/5/2 130/5/2 131/5/2
f 131/5/2 130/5/2 132/5/2
f 133/5/2 134/5/2 135/5/2
f 135/5/2 134/5/2 136/5/2
f 137/5/2 138/5/2 139/5/2
f 139/5/2 138/5/2 140/5/2
f 141/2/2 142/2/2 143/2/2
f 143/2/2 142/2/2 144/2/2
f 144/2/2 142/2/2 145/2/2
f 145/2/2 142/2/2 146/2/2
f 144/2/2 145/2/2 147/2/2
f 147/2/2 145/2/2 148/2/2
f 146/2/2 142/2/2 149/2/2
f 149/2/2 142/2/2 150/2/2
f 150/2/2 142/2/2 151/2/2
f 151/2/2 142/2/2 152/2/2
f 144/2/2 147/2/2 153/2/2
f 153/2/2 147/2/2 154/2/2
f 152/2/2 142/2/2 155/2/2
f 155/2/2 142/2/2 156/2/2
f 159/2/3 158/2/3 157/2/3
f 160/2/3 158/2/3 159/2/3
f 163/2/3 162/2/3 161/2/3
f 164/2/3 162/2/3 163/2/3
f 167/2/3 166/2/3 165/2/3
f 168/2/3 166/2/3 167/2/3
f 169/1/3 168/1/3 167/1/3
f 170/1/3 168/1/3 169/1/3
f 171/1/3 169/1/3 167/1/3
f 171/5/3 170/5/3 169/5/3
f 172/5/3 170/5/3 171/5/3
f 173/1/3 168/1/3 170/1/3
f 173/5/3 170/5/3 172/5/3
f 174/1/3 168/1/3 173/1/3
f 175/1/3 172/1/3 171/1/3
f 175/1/3 171/1/3 167/1/3
f 176/1/3 172/1/3 175/1/3
f 177/5/3 174/5/3 173/5/3
f 177/1/3 172/1/3 176/1/3
f 177/5/3 173/5/3 172/5/3
f 178/5/3 174/5/3 177/5/3
f 179/1/3 175/1/3 167/1/3
f 180/5/3 176/5/3 175/5/3
f 180/1/3 175/1/3 179/1/3
f 181/5/3 176/5/3 180/5/3
f 182/1/3 177/1/3 176/1/3
f 182/5/3 176/5/3 181/5/3
f 182/1/3 178/1/3 177/1/3
f 183/1/3 168/1/3 174/1/3
f 183/5/3 174/5/3 178/5/3
f 184/1/3 168/1/3 183/1/3
f 185/1/3 179/1/3 167/1/3
f 186/5/3 181/5/3 180/5/3
f 186/1/3 179/1/3 185/1/3
f 186/5/3 180/5/3 179/5/3
f 187/5/3 181/5/3 186/5/3
f 188/1/3 182/1/3 181/1/3
f 188/5/3 181/5/3 187/5/3
f 189/1/3 178/1/3 182/1/3
f 189/1/3 182/1/3 188/1/3
f 189/5/3 184/5/3 183/5/3
f 189/5/3 183/5/3 178/5/3
f 190/5/3 184/5/3 189/5/3
f 191/1/3 168/1/3 184/1/3
f 192/2/3 166/2/3 168/2/3
f 192/1/3 168/1/3 191/1/3
f 194/1/3 185/1/3 167/1/3
f 195/5/3 187/5/3 186/5/3
f 195/5/3 186/5/3 185/5/3
f 196/1/3 188/1/3 187/1/3
f 196/5/3 187/5/3 195/5/3
f 196/1/3 189/1/3 188/1/3
f 196/1/3 190/1/3 189/1/3
f 197/2/3 166/2/3 192/2/3
f 197/2/3 192/2/3 191/2/3
f 198/2/3 166/2/3 197/2/3
f 199/1/3 194/1/3 193/1/3
f 199/1/3 185/1/3 194/1/3
f 200/5/3 195/5/3 185/5/3
f 200/1/3 185/1/3 199/1/3
f 201/5/3 200/5/3 199/5/3
f 201/5/3 195/5/3 200/5/3
f 202/1/3 196/1/3 195/1/3
f 202/5/3 195/5/3 201/5/3
f 203/1/3 190/1/3 196/1/3
f 203/1/3 196/1/3 202/1/3
f 204/5/3 184/5/3 190/5/3
f 204/1/3 190/1/3 203/1/3
f 205/5/3 204/5/3 203/5/3
f 205/5/3 184/5/3 204/5/3
f 206/1/3 191/1/3 184/1/3
f 206/5/3 184/5/3 205/5/3
f 207/2/3 197/2/3 191/2/3
f 208/2/3 197/2/3 207/2/3
f 209/1/3 203/1/3 202/1/3
f 209/1/3 202/1/3 201/1/3
f 210/5/3 205/5/3 203/5/3
f 210/1/3 203/1/3 209/1/3
f 211/1/3 209/1/3 201/1/3
f 212/5/3 210/5/3 209/5/3
f 212/1/3 209/1/3 211/1/3
f 213/5/3 205/5/3 210/5/3
f 213/5/3 210/5/3 212/5/3
f 214/1/3 206/1/3 205/1/3
f 214/5/3 205/5/3 213/5/3
f 215/5/3 212/5/3 211/5/3
f 215/5/3 213/5/3 212/5/3
f 215/1/3 211/1/3 201/1/3
f 216/1/3 214/1/3 213/1/3
f 216/5/3 213/5/3 215/5/3
f 217/1/3 199/1/3 193/1/3
f 218/5/3 201/5/3 199/5/3
f 218/1/3 199/1/3 217/1/3
f 219/1/3 215/1/3 201/1/3
f 219/5/3 201/5/3 218/5/3
f 219/1/3 216/1/3 215/1/3
f 220/1/3 216/1/3 219/1/3
f 221/2/3 207/2/3 191/2/3
f 222/2/3 207/2/3 221/2/3
f 223/5/3 219/5/3 218/5/3
f 223/5/3 220/5/3 219/5/3
f 224/5/3 220/5/3 223/5/3
f 225/1/3 216/1/3 220/1/3
f 225/5/3 220/5/3 224/5/3
f 226/1/3 216/1/3 225/1/3
f 227/1/3 216/1/3 226/1/3
f 228/1/3 216/1/3 227/1/3
f 229/5/3 225/5/3 224/5/3
f 229/5/3 226/5/3 225/5/3
f 230/1/3 227/1/3 226/1/3
f 230/5/3 226/5/3 229/5/3
f 231/1/3 227/1/3 230/1/3
f 232/1/3 216/1/3 228/1/3
f 232/5/3 228/5/3 227/5/3
f 233/1/3 216/1/3 232/1/3
f 234/5/3 231/5/3 230/5/3
f 235/1/3 227/1/3 231/1/3
f 235/5/3 231/5/3 234/5/3
f 236/1/3 227/1/3 235/1/3
f 237/5/3 236/5/3 235/5/3
f 238/5/3 236/5/3 237/5/3
f 239/1/3 227/1/3 236/1/3
f 239/5/3 236/5/3 238/5/3
f 240/5/3 233/5/3 232/5/3
f 240/1/3 227/1/3 239/1/3
f 240/5/3 232/5/3 227/5/3
f 242/5/3 239/5/3 238/5/3
f 242/5/3 240/5/3 239/5/3
f 243/5/3 240/5/3 242/5/3
f 244/5/3 233/5/3 240/5/3
f 244/5/3 240/5/3 243/5/3
f 246/5/3 243/5/3 242/5/3
f 246/5/3 242/5/3 241/5/3
f 247/1/3 244/1/3 243/1/3
f 247/5/3 243/5/3 246/5/3
f 249/5/3 246/5/3 245/5/3
f 250/1/3 247/1/3 246/1/3
f 250/5/3 246/5/3 249/5/3
f 251/5/3 233/5/3 244/5/3
f 252/1/3 216/1/3 233/1/3
f 252/5/3 233/5/3 251/5/3
f 254/5/3 249/5/3 248/5/3
f 255/5/3 249/5/3 254/5/3
f 256/1/3 250/1/3 249/1/3
f 256/5/3 249/5/3 255/5/3
f 257/5/3 251/5/3 244/5/3
f 257/1/3 250/1/3 256/1/3
f 257/1/3 247/1/3 250/1/3
f 257/1/3 244/1/3 247/1/3
f 258/1/3 252/1/3 251/1/3
f 258/5/3 251/5/3 257/5/3
f 259/5/3 254/5/3 253/5/3
f 259/5/3 255/5/3 254/5/3
f 260/1/3 256/1/3 255/1/3
f 260/5/3 255/5/3 259/5/3
f 260/1/3 258/1/3 257/1/3
f 260/1/3 257/1/3 256/1/3
f 261/2/3 221/2/3 191/2/3
f 264/5/3 259/5/3 253/5/3
f 265/1/3 258/1/3 260/1/3
f 265/1/3 252/1/3 258/1/3
f 265/1/3 216/1/3 252/1/3
f 265/1/3 260/1/3 259/1/3
f 266/1/3 214/1/3 216/1/3
f 266/1/3 216/1/3 265/1/3
f 267/1/3 265/1/3 259/1/3
f 267/5/3 266/5/3 265/5/3
f 268/5/3 266/5/3 267/5/3
f 269/1/3 214/1/3 266/1/3
f 269/5/3 266/5/3 268/5/3
f 270/1/3 206/1/3 214/1/3
f 270/1/3 214/1/3 269/1/3
f 271/5/3 269/5/3 268/5/3
f 271/1/3 268/1/3 267/1/3
f 271/5/3 270/5/3 269/5/3
f 272/5/3 270/5/3 271/5/3
f 273/1/3 206/1/3 270/1/3
f 273/5/3 270/5/3 272/5/3
f 274/1/3 191/1/3 206/1/3
f 274/1/3 206/1/3 273/1/3
f 275/2/3 262/2/3 261/2/3
f 277/1/3 272/1/3 271/1/3
f 277/1/3 267/1/3 259/1/3
f 277/5/3 259/5/3 264/5/3
f 277/1/3 271/1/3 267/1/3
f 278/1/3 272/1/3 277/1/3
f 279/5/3 274/5/3 273/5/3
f 279/1/3 272/1/3 278/1/3
f 279/5/3 273/5/3 272/5/3
f 280/5/3 274/5/3 279/5/3
f 281/5/3 278/5/3 277/5/3
f 281/5/3 277/5/3 264/5/3
f 281/1/3 264/1/3 263/1/3
f 282/5/3 278/5/3 281/5/3
f 283/1/3 281/1/3 263/1/3
f 283/1/3 282/1/3 281/1/3
f 284/1/3 282/1/3 283/1/3
f 285/1/3 280/1/3 279/1/3
f 285/1/3 279/1/3 278/1/3
f 285/5/3 278/5/3 282/5/3
f 286/1/3 280/1/3 285/1/3
f 287/2/3 276/2/3 275/2/3
f 289/1/3 282/1/3 284/1/3
f 289/5/3 286/5/3 285/5/3
f 289/5/3 285/5/3 282/5/3
f 290/5/3 286/5/3 289/5/3
f 291/1/3 280/1/3 286/1/3
f 291/5/3 286/5/3 290/5/3
f 292/1/3 280/1/3 291/1/3
f 293/1/3 280/1/3 292/1/3
f 294/5/3 274/5/3 280/5/3
f 294/1/3 280/1/3 293/1/3
f 295/2/3 287/2/3 275/2/3
f 295/2/3 288/2/3 287/2/3
f 295/2/3 275/2/3 261/2/3
f 295/1/3 191/1/3 274/1/3
f 295/2/3 261/2/3 191/2/3
f 296/2/3 288/2/3 295/2/3
f 297/1/3 290/1/3 289/1/3
f 297/5/3 292/5/3 291/5/3
f 297/5/3 291/5/3 290/5/3
f 298/5/3 292/5/3 297/5/3
f 299/1/3 293/1/3 292/1/3
f 299/5/3 292/5/3 298/5/3
f 300/1/3 293/1/3 299/1/3
f 301/5/3 274/5/3 294/5/3
f 301/5/3 294/5/3 293/5/3
f 302/1/3 296/1/3 295/1/3
f 302/5/3 274/5/3 301/5/3
f 302/1/3 295/1/3 274/1/3
f 303/1/3 298/1/3 297/1/3
f 303/5/3 300/5/3 299/5/3
f 303/5/3 299/5/3 298/5/3
f 304/1/3 293/1/3 300/1/3
f 304/5/3 300/5/3 303/5/3
f 305/1/3 293/1/3 304/1/3
f 306/5/3 301/5/3 293/5/3
f 306/1/3 293/1/3 305/1/3
f 307/1/3 305/1/3 304/1/3
f 307/1/3 304/1/3 303/1/3
f 308/5/3 306/5/3 305/5/3
f 308/1/3 305/1/3 307/1/3
f 309/5/3 301/5/3 306/5/3
f 309/5/3 306/5/3 308/5/3
f 310/1/3 302/1/3 301/1/3
f 310/5/3 301/5/3 309/5/3
f 311/5/3 309/5/3 308/5/3
f 311/5/3 308/5/3 307/5/3
f 311/1/3 307/1/3 303/1/3
f 312/1/3 310/1/3 309/1/3
f 312/5/3 309/5/3 311/5/3
f 313/1/3 303/1/3 297/1/3
f 313/1/3 311/1/3 303/1/3
f 313/1/3 312/1/3 311/1/3
f 313/1/3 297/1/3 289/1/3
f 313/1/3 289/1/3 284/1/3
f 314/2/3 288/2/3 296/2/3
f 314/1/3 312/1/3 313/1/3
f 314/1/3 296/1/3 302/1/3
f 314/1/3 310/1/3 312/1/3
f 314/1/3 302/1/3 310/1/3
f 315/2/3 314/2/3 313/2/3
f 316/2/3 288/2/3 314/2/3
f 316/2/3 314/2/3 315/2/3
f 319/4/3 318/4/3 317/4/3
f 321/4/3 320/4/3 319/4/3
f 323/4/3 322/4/3 321/4/3
f 325/4/3 324/4/3 323/4/3
f 327/4/3 325/4/3 323/4/3
f 327/4/3 326/4/3 325/4/3
f 328/4/3 326/4/3 327/4/3
f 329/4/3 323/4/3 321/4/3
f 329/4/3 327/4/3 323/4/3
f 330/4/3 327/4/3 329/4/3
f 331/4/3 321/4/3 319/4/3
f 331/4/3 329/4/3 321/4/3
f 332/4/3 329/4/3 331/4/3
f 333/4/3 319/4/3 317/4/3
f 333/4/3 331/4/3 319/4/3
f 334/4/3 331/4/3 333/4/3
f 335/4/3 333/4/3 317/4/3
f 336/4/3 333/4/3 335/4/3
f 339/2/3 338/2/3 337/2/3
f 340/2/3 338/2/3 339/2/3
f 343/2/3 342/2/3 341/2/3
f 344/2/3 342/2/3 343/2/3
f 347/2/3 346/2/3 345/2/3
f 348/2/3 346/2/3 347/2/3
f 351/2/3 350/2/3 349/2/3
f 352/2/3 350/2/3 351/2/3
f 355/2/3 354/2/3 353/2/3
f 356/2/3 354/2/3 355/2/3
f 359/2/3 358/2/3 357/2/3
f 360/2/3 358/2/3 359/2/3
f 363/2/3 362/2/3 361/2/3
f 364/2/3 362/2/3 363/2/3
f 365/2/3 363/2/3 361/2/3
f 366/2/3 363/2/3 365/2/3
f 367/2/3 365/2/3 361/2/3
f 368/2/3 365/2/3 367/2/3
f 369/2/3 367/2/3 361/2/3
f 371/2/3 370/2/3 369/2/3
f 373/2/3 372/2/3 371/2/3
f 375/2/3 373/2/3 371/2/3
f 375/2/3 374/2/3 373/2/3
f 375/2/3 369/2/3 361/2/3
f 375/2/3 371/2/3 369/2/3
f 376/2/3 374/2/3 375/2/3
f 377/2/4 378/2/4 379/2/4
f 379/2/4 378/2/4 380/2/4
f 377/2/4 379/2/4 381/2/4
f 381/2/4 379/2/4 382/2/4
f 377/2/4 381/2/4 383/2/4
f 383/2/4 381/2/4 384/2/4
f 377/2/4 383/2/4 385/2/4
f 385/2/4 386/2/4 387/2/4
f 387/2/4 388/2/4 389/2/4
f 387/2/4 389/2/4 391/2/4
f 389/2/4 390/2/4 391/2/4
f 377/2/4 385/2/4 391/2/4
f 385/2/4 387/2/4 391/2/4
f 391/2/4 390/2/4 392/2/4
f 393/2/4 394/2/4 395/2/4
f 395/2/4 394/2/4 396/2/4
f 397/2/4 398/2/4 399/2/4
f 399/2/4 398/2/4 400/2/4
f 401/2/4 402/2/4 403/2/4
f 403/2/4 402/2/4 404/2/4
f 405/2/4 406/2/4 407/2/4
f 407/2/4 406/2/4 408/2/4
f 409/2/4 410/2/4 411/2/4
f 411/2/4 410/2/4 412/2/4
f 409/2/4 411/2/4 413/2/4
f 413/2/4 411/2/4 414/2/4
f 409/2/4 413/2/4 415/2/4
f 415/2/4 413/2/4 416/2/4
f 409/2/4 415/2/4 417/2/4
f 417/2/4 418/2/4 419/2/4
f 419/2/4 420/2/4 421/2/4
f 419/2/4 421/2/4 423/2/4
f 421/2/4 422/2/4 423/2/4
f 409/2/4 417/2/4 423/2/4
f 417/2/4 419/2/4 423/2/4
f 423/2/4 422/2/4 424/2/4
f 429/2/5 426/2/5 425/2/5
f 432/2/5 428/2/5 427/2/5
f 433/1/5 430/1/5 429/1/5
f 433/2/5 429/2/5 425/2/5
f 434/1/5 430/1/5 433/1/5
f 435/1/5 432/1/5 431/1/5
f 436/2/5 428/2/5 432/2/5
f 436/1/5 432/1/5 435/1/5
f 437/2/5 434/2/5 433/2/5
f 437/4/5 435/4/5 434/4/5
f 438/2/5 436/2/5 435/2/5
f 438/4/5 435/4/5 437/4/5
f 439/2/5 437/2/5 433/2/5
f 439/2/5 433/2/5 425/2/5
f 439/2/5 438/2/5 437/2/5
f 440/2/5 428/2/5 436/2/5
f 440/2/5 438/2/5 439/2/5
f 440/2/5 436/2/5 438/2/5
f 441/2/5 439/2/5 425/2/5
f 442/2/5 428/2/5 440/2/5
f 443/2/5 441/2/5 425/2/5
f 443/2/5 442/2/5 441/2/5
f 444/2/5 428/2/5 442/2/5
f 444/2/5 442/2/5 443/2/5
f 449/5/5 446/5/5 445/5/5
f 450/5/5 446/5/5 449/5/5
f 451/5/5 448/5/5 447/5/5
f 452/5/5 448/5/5 451/5/5
f 457/5/5 454/5/5 453/5/5
f 458/5/5 454/5/5 457/5/5
f 459/5/5 456/5/5 455/5/5
f 460/5/5 456/5/5 459/5/5
f 465/5/5 462/5/5 461/5/5
f 466/5/5 462/5/5 465/5/5
f 467/5/5 464/5/5 463/5/5
f 468/5/5 464/5/5 467/5/5
f 473/5/5 470/5/5 469/5/5
f 474/5/5 470/5/5 473/5/5
f 475/5/5 472/5/5 471/5/5
f 476/5/5 472/5/5 475/5/5
f 479/5/5 478/5/5 477/5/5
f 480/5/5 478/5/5 479/5/5
f 481/2/6 482/2/6 485/2/6
f 485/2/6 482/2/6 486/2/6
f 486/2/6 482/2/6 487/2/6
f 483/2/6 484/2/6 488/2/6
f 488/2/6 484/2/6 489/2/6
f 489/2/6 484/2/6 490/2/6
f 491/2/6 492/2/6 495/2/6
f 495/2/6 492/2/6 496/2/6
f 493/2/6 494/2/6 497/2/6
f 497/2/6 494/2/6 498/2/6
f 499/2/6 500/2/6 501/2/6
f 501/2/6 500/2/6 502/2/6
f 503/2/6 504/2/6 505/2/6
f 505/2/6 504/2/6 506/2/6
f 507/2/6 508/2/6 511/2/6
f 511/2/6 508/2/6 512/2/6
f 509/2/6 510/2/6 513/2/6
f 513/2/6 510/2/6 514/2/6
f 515/2/6 516/2/6 519/2/6
f 519/2/6 516/2/6 520/2/6
f 517/2/6 518/2/6 521/2/6
f 521/2/6 518/2/6 522/2/6
f 523/2/6 524/2/6 527/2/6
f 527/2/6 524/2/6 528/2/6
f 525/2/6 526/2/6 529/2/6
f 529/2/6 526/2/6 530/2/6
f 531/2/6 532/2/6 535/2/6
f 535/2/6 532/2/6 536/2/6
f 533/2/6 534/2/6 537/2/6
f 537/2/6 534/2/6 538/2/6
f 539/2/6 540/2/6 543/2/6
f 543/2/6 540/2/6 544/2/6
f 541/2/6 542/2/6 545/2/6
f 545/2/6 542/2/6 546/2/6
f 547/2/6 548/2/6 551/2/6
f 551/2/6 548/2/6 552/2/6
f 549/2/6 550/2/6 553/2/6
f 553/2/6 550/2/6 554/2/6
f 555/2/6 556/2/6 559/2/6
f 559/2/6 556/2/6 560/2/6
f 557/2/6 558/2/6 561/2/6
f 561/2/6 558/2/6 562/2/6
f 563/2/6 564/2/6 567/2/6
f 567/2/6 564/2/6 568/2/6
f 565/2/6 566/2/6 569/2/6
f 569/2/6 566/2/6 570/2/6
f 563/2/6 567/2/6 571/2/6
f 571/2/6 567/2/6 572/2/6
f 570/2/6 566/2/6 573/2/6
f 573/2/6 566/2/6 574/2/6
f 575/2/6 576/2/6 579/2/6
f 577/2/6 578/2/6 582/2/6
f 579/2/6 580/2/6 583/2/6
f 575/2/6 579/2/6 583/2/6
f 583/2/6 580/2/6 584/2/6
f 581/2/6 582/2/6 585/2/6
f 582/2/6 578/2/6 586/2/6
f 585/2/6 582/2/6 586/2/6
