# MagicaVoxel @ Ephtracy

# group
o 

# material
mtllib simple dirt height.mtl
usemtl palette

# normals
vn -1 0 0
vn 1 0 0
vn 0 0 1
vn 0 0 -1
vn 0 -1 0
vn 0 1 0

# texcoords
vt 0.00976563 0.5
vt 0.306641 0.5
vt 0.369141 0.5

# verts
v -0.3 0 0.3
v -0.3 0 -0.3
v -0.3 8.9 0.3
v -0.3 8.9 -0.3
v -0.3 9.5 0.3
v -0.3 9.5 -0.3
v 0.3 0 0.3
v 0.3 0 -0.3
v 0.3 8.9 0.3
v 0.3 8.9 -0.3
v 0.3 9.5 0.3
v 0.3 9.5 -0.3
v -0.3 0 0.3
v -0.3 8.9 0.3
v -0.3 9.5 0.3
v 0.3 0 0.3
v 0.3 8.9 0.3
v 0.3 9.5 0.3
v -0.3 0 -0.3
v -0.3 8.9 -0.3
v -0.3 9.5 -0.3
v 0.3 0 -0.3
v 0.3 8.9 -0.3
v 0.3 9.5 -0.3
v -0.3 0 0.3
v 0.3 0 0.3
v -0.3 0 -0.3
v 0.3 0 -0.3
v -0.3 9.5 0.3
v 0.3 9.5 0.3
v -0.3 9.5 -0.3
v 0.3 9.5 -0.3

# faces
f 3/3/1 2/3/1 1/3/1
f 4/3/1 2/3/1 3/3/1
f 5/1/1 4/1/1 3/1/1
f 6/1/1 4/1/1 5/1/1
f 7/3/2 8/3/2 9/3/2
f 9/3/2 8/3/2 10/3/2
f 9/1/2 10/1/2 11/1/2
f 11/1/2 10/1/2 12/1/2
f 16/3/3 14/3/3 13/3/3
f 17/1/3 15/1/3 14/1/3
f 17/3/3 14/3/3 16/3/3
f 18/1/3 15/1/3 17/1/3
f 19/3/4 20/3/4 22/3/4
f 20/1/4 21/1/4 23/1/4
f 22/3/4 20/3/4 23/3/4
f 23/1/4 21/1/4 24/1/4
f 27/3/5 26/3/5 25/3/5
f 28/3/5 26/3/5 27/3/5
f 29/1/6 30/1/6 31/1/6
f 31/1/6 30/1/6 32/1/6
